<svg x="0" y="0" width="40" height="40" overflow="inherit" preserveAspectRatio="xMidYMid" font-size="0" xml="http://www.w3.org/XML/1998/namespace" style="fill:none;" xmlns="http://www.w3.org/2000/svg" xmlns:xlink="http://www.w3.org/1999/xlink" xmlns:xml="http://www.w3.org/XML/1998/namespace" version="1.1"><rect x="0" y="0" width="40" height="40" rx="12" ry="12" xml:space="default" style="fill:#CE253D;" /><path d="M27.208 23.194 L27.208 23.271 C27.208 23.728 26.903 24.109 26.447 24.109 C26.142 24.109 25.837 24.109 25.609 23.728 C25.38 23.423 25.076 23.042 24.848 22.357 L27.665 12.229 L23.477 12.229 L22.717 15.655 C22.487 14.895 21.955 14.057 21.27 13.523 A5.409 5.409 0 0 0 17.462 12 C15.33 12 13.58 12.761 12.132 14.284 A8.166 8.166 0 0 0 10 19.842 C10 22.279 10.761 24.183 12.132 25.706 A6.855 6.855 0 0 0 17.615 27.99 C18.909 27.99 20.203 27.534 21.27 26.772 C22.03 26.315 22.716 25.63 23.402 24.64 C23.631 25.553 23.935 26.163 24.239 26.62 C24.773 27.38 25.61 27.761 26.523 27.761 C27.436 27.761 28.199 27.305 28.58 26.619 C28.96 26.011 29.113 25.249 29.113 23.802 L29.113 23.041 L27.133 23.118 L27.208 23.194 z M20.354 24.718 C19.669 25.708 18.908 26.164 17.994 26.164 C16.851 26.164 16.09 25.707 15.48 24.641 C14.795 23.651 14.49 22.128 14.49 20.073 C14.49 18.245 14.795 16.722 15.557 15.732 A2.665 2.665 0 0 1 17.993 14.361 C18.906 14.361 19.592 14.742 20.277 15.58 C20.963 16.418 21.497 17.864 21.876 19.844 A12.171 12.171 0 0 1 20.354 24.717 z" xml:space="default" style="fill:white;" /></svg>