<svg x="0" y="0" width="40" height="40" overflow="inherit" viewBox="0, 0, 40, 40" preserveAspectRatio="xMidYMid" font-size="0" xml="http://www.w3.org/XML/1998/namespace" style="fill:none;" xmlns="http://www.w3.org/2000/svg" xmlns:xlink="http://www.w3.org/1999/xlink" xmlns:xml="http://www.w3.org/XML/1998/namespace" version="1.1"><rect x="0" y="0" width="40" height="40" xml:space="default" style="fill:#990032;"/><path d="M4 11.0045 L4 29 L7.80537 29 L7.80537 24.428 L12.7573 24.428 L15.6217 21.827 L15.6217 13.6064 L12.8855 11.0045 L4 11.0045 z M11.7343 20.9603 L7.80537 20.9603 L7.80537 14.4776 L11.7343 14.4776 L11.7343 20.9603 z" xml:space="default" style="fill:white;"/><path d="M36.9679 14.4776 L31.4541 14.4776 L31.4551 25.5233 L37 25.5233 L37 29 L30.2991 29 L27.562 26.3936 L27.562 13.6073 L30.2982 11.0054 L36.9679 11.0054 L36.9679 14.4776 z" xml:space="default" style="fill:white;"/><path d="M21.0921 28.991 L17.2 28.991 L17.2 11 L26.0393 11 L26.0393 14.474 L21.0921 14.474 L21.0921 28.991 z" xml:space="default" style="fill:white;"/></svg>